<?xml version="1.0" standalone="no"?><!DOCTYPE svg PUBLIC "-//W3C//DTD SVG 1.1//EN" "http://www.w3.org/Graphics/SVG/1.1/DTD/svg11.dtd"><svg class="icon" width="200px" height="200.00px" viewBox="0 0 1024 1024" version="1.1" xmlns="http://www.w3.org/2000/svg"><path fill="#333333" d="M952.019763 556.747162l-450.866688-450.848256c-10.788147-10.787738-32.021606-20.748595-47.229542-22.129971L210.063667 61.554893c-15.194624-1.383526-36.452659 6.308659-47.228518 17.108685l-55.653786 55.651533c-10.764595 10.787738-18.504192 32.043827-17.132851 47.201997l21.718528 244.478054c1.335501 15.19401 11.272192 36.427674 22.049075 47.226573l450.878976 450.850304c10.775859 10.773402 28.419379 10.773402 39.217766 0L952.019763 595.96329C962.79767 585.175552 962.79767 567.525581 952.019763 556.747162zM278.597325 251.715891c-23.502234 23.53705-61.550285 23.50121-85.028966 0-23.515546-23.478784-23.550362-61.547725-0.03584-85.049037 23.478682-23.478784 61.562573-23.454208 85.064806 0.03584C302.086246 190.191718 302.063718 228.27305 278.597325 251.715891z" /></svg>