<?xml version="1.0" standalone="no"?><!DOCTYPE svg PUBLIC "-//W3C//DTD SVG 1.1//EN" "http://www.w3.org/Graphics/SVG/1.1/DTD/svg11.dtd"><svg class="icon" width="200px" height="200.00px" viewBox="0 0 1024 1024" version="1.1" xmlns="http://www.w3.org/2000/svg"><path fill="#333333" d="M958.299961 608.912214c19.617603 100.407827-103.890406 232.831836-446.295868 232.831836-314.266431 0-470.601433-127.317711-445.727909-230.486418 14.700411-60.9737 81.322487-58.906621 97.238636-90.310865 15.916149-31.40936 29.980037-45.902446 41.62575-81.002872 11.645713-35.106566 22.904601-114.761744 33.771545-144.326083 10.871038-29.5582 25.041354-55.425334 42.5089-77.596286s37.653109-41.011043 60.550546-56.535621c22.904601-15.517415 46.947166-26.874067 71.618067-35.468816-9.655299 3.363607-7.925839-13.233396 13.812143-33.926694 21.739006-20.692275 48.520053-31.035854 80.350305-31.035854 31.832299 0 58.619486 10.343579 80.352352 31.035854 21.736959 20.693298 15.30521 31.707143 15.30521 31.707143 26.395245 8.129144 51.431482 19.957541 75.108711 35.474956 23.682346 15.517415 44.254734 34.733059 61.722281 57.638745 17.467547 22.912849 31.439333 49.14735 41.924568 78.70555 10.479095 29.564339 21.539453 106.263186 33.184143 142.105508 11.645713 35.842323 25.333008 51.077306 41.63496 83.223447C873.287277 553.09086 948.219972 557.318138 958.299961 608.912214zM667.167362 900.845099c4.662379 0-9.471096 62.10036-154.593263 62.10036-136.339784 0-158.269133-62.10036-155.164292-62.10036 0 0 77.489021 15.46932 150.871342 15.46932C586.43023 916.313396 667.167362 900.845099 667.167362 900.845099z" /></svg>